# xmcd
#
# Track frame offsets: 
#        150
#        22399
#        39666
#        64976
#        84760
#        104752
#        123797
#        145708
#        164173
#        182298
#        191716
#        212351
#
# Disc length: 3031 seconds
#
# Revision: 0
# Processed by: cddbd v1.5.2PL0 Copyright (c) Steve Scherf et al.
# Submitted via: ExactAudioCopyFreeDBPlugin 1.0
#
DISCID=a80bd50c
DTITLE=Various Artist - Luxury Soul 2011 [CD3)
DYEAR=2011
DGENRE=Pop
TTITLE0=Adika Pongo - Chill Out
TTITLE1=Soul Talk - Guess You're Leaving
TTITLE2=Nicolas Bearde - Miracle Lover
TTITLE3=Gianna - My Everything
TTITLE4=Billy Valentine - She Said Don't Love Me
TTITLE5=Emotions - The Good Times
TTITLE6=Ali Ollie Woodson - Right Here All Along
TTITLE7=Preston Glass feat. Sharon McMahon and Laundon Kendricks - Olive
TTITLE7=Branch
TTITLE8=Byron Woods - Special Kind Of Woman
TTITLE9=James Day feat. Mikelyn Roderick - Stormy
TTITLE10=Jabari Grover - Thank You
TTITLE11=Ray Gaskins - We Had To Say Goodbye
EXTD=
EXTT0=
EXTT1=
EXTT2=
EXTT3=
EXTT4=
EXTT5=
EXTT6=
EXTT7=
EXTT8=
EXTT9=
EXTT10=
EXTT11=
PLAYORDER=
